<?xml version="1.0" encoding="utf-8"?>
<svg xmlns="http://www.w3.org/2000/svg" style="margin: auto; background: none; display: block; shape-rendering: auto;" width="280" height="250" preserveAspectRatio="xMidYMid">
<style type="text/css">
  text {
    text-anchor: middle; font-size: 80px; opacity: 0;
  }
</style>
<g style="transform-origin:140px 125px;transform:scale(1)">
<g transform="translate(140,125)">
  <g transform="translate(0,0)"><g class="path" style="transform: scale(0.91); transform-origin: -67.92px -6.83227px; animation: 1s linear -0.683333s infinite normal forwards running breath-727511b1-3162-42ea-9819-3118c4f166af;"><path d="M1.76 0.48L3.12-8.16L28.88-46.24L2.80-44.48L4.72-55.52L22.96-54.64L41.28-55.60L40.08-47.04L14.24-8.80L42.32-10.56L40.72 0.48L21.44-0.40L1.76 0.48" fill="#edb6b9" stroke="none" stroke-width="none" transform="translate(-89.9599609375,20.727733256022127)" style="fill: rgb(237, 182, 185);"></path></g><g class="path" style="transform: scale(0.91); transform-origin: -27.32px 0.567734px; animation: 1s linear -0.546667s infinite normal forwards running breath-727511b1-3162-42ea-9819-3118c4f166af;"><path d="M45.60-16.72L45.60-16.72Q45.60-26.96 51.12-34.08L51.12-34.08L51.12-34.08Q56.64-41.20 64.04-41.20L64.04-41.20L64.04-41.20Q71.44-41.20 75.56-36.40L75.56-36.40L75.56-36.40Q79.68-31.60 79.68-23.68L79.68-23.68L79.68-23.68Q79.68-13.12 74.36-6.12L74.36-6.12L74.36-6.12Q69.04 0.88 60.96 0.88L60.96 0.88L60.96 0.88Q54.32 0.88 49.96-4.12L49.96-4.12L49.96-4.12Q45.60-9.12 45.60-16.72L45.60-16.72zM70.72-19.52L70.72-19.52L70.72-19.52Q70.72-31.12 62.80-31.12L62.80-31.12L62.80-31.12Q54.56-31.12 54.56-20.24L54.56-20.24L54.56-20.24Q54.56-14.56 56.88-11.36L56.88-11.36L56.88-11.36Q59.20-8.16 63-8.16L63-8.16L63-8.16Q66.80-8.16 68.76-11.08L68.76-11.08L68.76-11.08Q70.72-14 70.72-19.52" fill="#edb6b9" stroke="none" stroke-width="none" transform="translate(-89.9599609375,20.727733256022127)" style="fill: rgb(237, 182, 185);"></path></g><g class="path" style="transform: scale(0.91); transform-origin: 13.2px -10.0323px; animation: 1s linear -0.41s infinite normal forwards running breath-727511b1-3162-42ea-9819-3118c4f166af;"><path d="M109.92-20.24L109.92-20.24Q109.92-25.76 108.96-27.60L108.96-27.60L108.96-27.60Q108-29.44 104.48-29.44L104.48-29.44L104.48-29.44Q100.96-29.44 96.48-26.64L96.48-26.64L96.48-20.80L97.36-2L86.56 0L87.52-19.44L86.56-59.92L97.52-61.92L96.48-41.20L96.48-31.84L96.48-31.84Q97.68-33.44 99.20-34.96L99.20-34.96L99.20-34.96Q100.72-36.48 103.92-38.40L103.92-38.40L103.92-38.40Q107.12-40.32 110.76-40.32L110.76-40.32L110.76-40.32Q114.40-40.32 116.88-37.48L116.88-37.48L116.88-37.48Q119.36-34.64 119.36-29.76L119.36-29.76L118.88-20.80L119.76-1.60L108.96 0.40L109.92-20.24" fill="#edb6b9" stroke="none" stroke-width="none" transform="translate(-89.9599609375,20.727733256022127)" style="fill: rgb(237, 182, 185);"></path></g><g class="path" style="transform: scale(0.91); transform-origin: 43.92px 0.367733px; animation: 1s linear -0.273333s infinite normal forwards running breath-727511b1-3162-42ea-9819-3118c4f166af;"><path d="M128.56-38.72L139.28-40.72L138.32-20.80L139.20-2L128.48 0L129.44-19.44L128.56-38.72" fill="#edb6b9" stroke="none" stroke-width="none" transform="translate(-89.9599609375,20.727733256022127)" style="fill: rgb(237, 182, 185);"></path></g><g class="path" style="transform: scale(0.91); transform-origin: 44.28px -32.0723px; animation: 1s linear -0.136667s infinite normal forwards running breath-727511b1-3162-42ea-9819-3118c4f166af;"><path d="M128-52.44L128-52.44L128-52.44Q128-55.12 130.08-57.24L130.08-57.24L130.08-57.24Q132.16-59.36 134.88-59.36L134.88-59.36L134.88-59.36Q137.60-59.36 139.04-57.88L139.04-57.88L139.04-57.88Q140.48-56.40 140.48-53.44L140.48-53.44L140.48-53.44Q140.48-50.48 138.44-48.36L138.44-48.36L138.44-48.36Q136.40-46.24 133.72-46.24L133.72-46.24L133.72-46.24Q131.04-46.24 129.52-48L129.52-48L129.52-48Q128-49.76 128-52.44" fill="#edb6b9" stroke="none" stroke-width="none" transform="translate(-89.9599609375,20.727733256022127)" style="fill: rgb(237, 182, 185);"></path></g><g class="path" style="transform: scale(0.91); transform-origin: 74.68px 0.487734px; animation: 1s linear 0s infinite normal forwards running breath-727511b1-3162-42ea-9819-3118c4f166af;"><path d="M157.68 0L157.68 0L157.68 0Q153.36 0 150.68-2.84L150.68-2.84L150.68-2.84Q148-5.68 148-10.32L148-10.32L148.48-19.52L147.60-38.72L158.32-40.72L157.28-16.40L157.28-16.40Q157.28-12.96 158.52-11.36L158.52-11.36L158.52-11.36Q159.76-9.76 162.48-9.76L162.48-9.76L162.48-9.76Q165.20-9.76 170-12.48L170-12.48L170-17.28L169.12-38.32L179.92-40.32L178.96-20.32L179.04-13.76L179.04-13.76Q179.04-8.64 181.68-3.44L181.68-3.44L173.36 0.24L173.36 0.24Q170.72-4.96 170.16-8.08L170.16-8.08L170.16-8.08Q162.96 0 157.68 0" fill="#edb6b9" stroke="none" stroke-width="none" transform="translate(-89.9599609375,20.727733256022127)" style="fill: rgb(237, 182, 185);"></path></g></g>
</g>
</g>
<style id="breath-727511b1-3162-42ea-9819-3118c4f166af" data-anikit="">@keyframes breath-727511b1-3162-42ea-9819-3118c4f166af
{
  0% {
    animation-timing-function: cubic-bezier(0.9647,0.2413,-0.0705,0.7911);
    transform: scale(0.9099999999999999);
  }
  51% {
    animation-timing-function: cubic-bezier(0.9226,0.2631,-0.0308,0.7628);
    transform: scale(1.02994);
  }
  100% {
    transform: scale(0.9099999999999999);
  }
}</style></svg>
